<?xml version="1.0" encoding="utf-8" standalone="no"?>
<!DOCTYPE svg PUBLIC "-//W3C//DTD SVG 1.1//EN"
  "http://www.w3.org/Graphics/SVG/1.1/DTD/svg11.dtd">
<svg xmlns:xlink="http://www.w3.org/1999/xlink" width="576pt" height="432pt" viewBox="0 0 576 432" xmlns="http://www.w3.org/2000/svg" version="1.1">
 <metadata>
  <rdf:RDF xmlns:dc="http://purl.org/dc/elements/1.1/" xmlns:cc="http://creativecommons.org/ns#" xmlns:rdf="http://www.w3.org/1999/02/22-rdf-syntax-ns#">
   <cc:Work>
    <dc:type rdf:resource="http://purl.org/dc/dcmitype/StillImage"/>
    <dc:date>2026-04-10T17:21:32.347368</dc:date>
    <dc:format>image/svg+xml</dc:format>
    <dc:creator>
     <cc:Agent>
      <dc:title>Matplotlib v3.9.4, https://matplotlib.org/</dc:title>
     </cc:Agent>
    </dc:creator>
   </cc:Work>
  </rdf:RDF>
 </metadata>
 <defs>
  <style type="text/css">*{stroke-linejoin: round; stroke-linecap: butt}</style>
 </defs>
 <g id="figure_1">
  <g id="patch_1">
   <path d="M 0 432 
L 576 432 
L 576 0 
L 0 0 
z
" style="fill: #ffffff"/>
  </g>
  <g id="axes_1">
   <g id="patch_2">
    <path d="M 54.77 379.06 
L 565.2 379.06 
L 565.2 10.8 
L 54.77 10.8 
z
" style="fill: #ffffff"/>
   </g>
   <g id="matplotlib.axis_1">
    <g id="xtick_1">
     <g id="line2d_1">
      <defs>
       <path id="m59529fa64b" d="M 0 0 
L 0 -4 
" style="stroke: #262626; stroke-width: 1.5"/>
      </defs>
      <g>
       <use xlink:href="#m59529fa64b" x="77.971364" y="379.06" style="fill: #262626; stroke: #262626; stroke-width: 1.5"/>
      </g>
     </g>
     <g id="text_1">
      <!-- 0 -->
      <g style="fill: #262626" transform="translate(73.808864 394.499062) scale(0.15 -0.15)">
       <defs>
        <path id="SourceHanSansSC-Regular-30" d="M 1779 -83 
C 2669 -83 3238 723 3238 2362 
C 3238 3987 2669 4774 1779 4774 
C 883 4774 320 3987 320 2362 
C 320 723 883 -83 1779 -83 
z
M 1779 390 
C 1248 390 883 986 883 2362 
C 883 3731 1248 4314 1779 4314 
C 2310 4314 2675 3731 2675 2362 
C 2675 986 2310 390 1779 390 
z
" transform="scale(0.015625)"/>
       </defs>
       <use xlink:href="#SourceHanSansSC-Regular-30"/>
      </g>
     </g>
    </g>
    <g id="xtick_2">
     <g id="line2d_2">
      <g>
       <use xlink:href="#m59529fa64b" x="170.962801" y="379.06" style="fill: #262626; stroke: #262626; stroke-width: 1.5"/>
      </g>
     </g>
     <g id="text_2">
      <!-- 100 -->
      <g style="fill: #262626" transform="translate(158.475301 394.499062) scale(0.15 -0.15)">
       <defs>
        <path id="SourceHanSansSC-Regular-31" d="M 563 0 
L 3136 0 
L 3136 486 
L 2195 486 
L 2195 4691 
L 1747 4691 
C 1491 4544 1190 4435 774 4358 
L 774 3987 
L 1613 3987 
L 1613 486 
L 563 486 
L 563 0 
z
" transform="scale(0.015625)"/>
       </defs>
       <use xlink:href="#SourceHanSansSC-Regular-31"/>
       <use xlink:href="#SourceHanSansSC-Regular-30" x="55.499985"/>
       <use xlink:href="#SourceHanSansSC-Regular-30" x="110.999969"/>
      </g>
     </g>
    </g>
    <g id="xtick_3">
     <g id="line2d_3">
      <g>
       <use xlink:href="#m59529fa64b" x="263.954238" y="379.06" style="fill: #262626; stroke: #262626; stroke-width: 1.5"/>
      </g>
     </g>
     <g id="text_3">
      <!-- 200 -->
      <g style="fill: #262626" transform="translate(251.466738 394.499062) scale(0.15 -0.15)">
       <defs>
        <path id="SourceHanSansSC-Regular-32" d="M 282 0 
L 3232 0 
L 3232 506 
L 1894 506 
C 1658 506 1376 480 1126 461 
C 2240 1504 3008 2445 3008 3398 
C 3008 4230 2477 4774 1638 4774 
C 1050 4774 646 4493 269 4077 
L 595 3757 
C 858 4070 1184 4301 1568 4301 
C 2150 4301 2432 3910 2432 3373 
C 2432 2573 1773 1632 282 371 
L 282 0 
z
" transform="scale(0.015625)"/>
       </defs>
       <use xlink:href="#SourceHanSansSC-Regular-32"/>
       <use xlink:href="#SourceHanSansSC-Regular-30" x="55.499985"/>
       <use xlink:href="#SourceHanSansSC-Regular-30" x="110.999969"/>
      </g>
     </g>
    </g>
    <g id="xtick_4">
     <g id="line2d_4">
      <g>
       <use xlink:href="#m59529fa64b" x="356.945676" y="379.06" style="fill: #262626; stroke: #262626; stroke-width: 1.5"/>
      </g>
     </g>
     <g id="text_4">
      <!-- 300 -->
      <g style="fill: #262626" transform="translate(344.458176 394.499062) scale(0.15 -0.15)">
       <defs>
        <path id="SourceHanSansSC-Regular-33" d="M 1683 -83 
C 2522 -83 3194 416 3194 1254 
C 3194 1901 2752 2310 2202 2445 
L 2202 2477 
C 2701 2650 3034 3034 3034 3603 
C 3034 4346 2458 4774 1664 4774 
C 1126 4774 710 4538 358 4218 
L 672 3846 
C 941 4115 1267 4301 1645 4301 
C 2138 4301 2438 4006 2438 3558 
C 2438 3053 2112 2662 1139 2662 
L 1139 2214 
C 2227 2214 2598 1843 2598 1274 
C 2598 736 2208 403 1645 403 
C 1114 403 762 659 486 941 
L 186 563 
C 493 224 954 -83 1683 -83 
z
" transform="scale(0.015625)"/>
       </defs>
       <use xlink:href="#SourceHanSansSC-Regular-33"/>
       <use xlink:href="#SourceHanSansSC-Regular-30" x="55.499985"/>
       <use xlink:href="#SourceHanSansSC-Regular-30" x="110.999969"/>
      </g>
     </g>
    </g>
    <g id="xtick_5">
     <g id="line2d_5">
      <g>
       <use xlink:href="#m59529fa64b" x="449.937113" y="379.06" style="fill: #262626; stroke: #262626; stroke-width: 1.5"/>
      </g>
     </g>
     <g id="text_5">
      <!-- 400 -->
      <g style="fill: #262626" transform="translate(437.449613 394.499062) scale(0.15 -0.15)">
       <defs>
        <path id="SourceHanSansSC-Regular-34" d="M 2176 0 
L 2726 0 
L 2726 1293 
L 3354 1293 
L 3354 1760 
L 2726 1760 
L 2726 4691 
L 2080 4691 
L 128 1677 
L 128 1293 
L 2176 1293 
L 2176 0 
z
M 2176 1760 
L 736 1760 
L 1805 3360 
C 1939 3590 2067 3827 2182 4051 
L 2208 4051 
C 2195 3814 2176 3430 2176 3200 
L 2176 1760 
z
" transform="scale(0.015625)"/>
       </defs>
       <use xlink:href="#SourceHanSansSC-Regular-34"/>
       <use xlink:href="#SourceHanSansSC-Regular-30" x="55.499985"/>
       <use xlink:href="#SourceHanSansSC-Regular-30" x="110.999969"/>
      </g>
     </g>
    </g>
    <g id="xtick_6">
     <g id="line2d_6">
      <g>
       <use xlink:href="#m59529fa64b" x="542.928551" y="379.06" style="fill: #262626; stroke: #262626; stroke-width: 1.5"/>
      </g>
     </g>
     <g id="text_6">
      <!-- 500 -->
      <g style="fill: #262626" transform="translate(530.441051 394.499062) scale(0.15 -0.15)">
       <defs>
        <path id="SourceHanSansSC-Regular-35" d="M 1677 -83 
C 2464 -83 3213 499 3213 1523 
C 3213 2560 2573 3021 1798 3021 
C 1517 3021 1306 2950 1094 2835 
L 1216 4192 
L 2982 4192 
L 2982 4691 
L 704 4691 
L 550 2502 
L 864 2304 
C 1133 2483 1331 2579 1645 2579 
C 2234 2579 2618 2182 2618 1510 
C 2618 826 2176 403 1619 403 
C 1075 403 730 653 467 922 
L 173 538 
C 493 224 941 -83 1677 -83 
z
" transform="scale(0.015625)"/>
       </defs>
       <use xlink:href="#SourceHanSansSC-Regular-35"/>
       <use xlink:href="#SourceHanSansSC-Regular-30" x="55.499985"/>
       <use xlink:href="#SourceHanSansSC-Regular-30" x="110.999969"/>
      </g>
     </g>
    </g>
    <g id="text_7">
     <!-- 样本序号 -->
     <g style="fill: #262626" transform="translate(275.985 417.465937) scale(0.17 -0.17)">
      <defs>
       <path id="SourceHanSansSC-Regular-6837" d="M 3245 5350 
L 2822 5190 
C 3034 4864 3264 4429 3360 4154 
L 3808 4339 
C 3712 4614 3469 5030 3245 5350 
z
M 5747 5229 
L 5261 5395 
C 5120 5018 4883 4506 4666 4147 
L 2554 4147 
L 2554 3706 
L 3994 3706 
L 3994 2822 
L 2752 2822 
L 2752 2381 
L 3994 2381 
L 3994 1478 
L 2310 1478 
L 2310 1024 
L 3994 1024 
L 3994 -506 
L 4474 -506 
L 4474 1024 
L 6061 1024 
L 6061 1478 
L 4474 1478 
L 4474 2381 
L 5728 2381 
L 5728 2822 
L 4474 2822 
L 4474 3706 
L 5939 3706 
L 5939 4147 
L 5171 4147 
C 5363 4467 5568 4870 5747 5229 
z
M 1632 5376 
L 1171 5376 
L 1171 4141 
L 352 4141 
L 352 3693 
L 1171 3693 
C 986 2816 595 1798 198 1261 
C 282 1146 403 934 454 794 
C 717 1184 973 1798 1171 2445 
L 1171 -506 
L 1632 -506 
L 1632 2816 
C 1805 2496 2003 2125 2086 1920 
L 2387 2272 
C 2278 2451 1805 3187 1632 3418 
L 1632 3693 
L 2310 3693 
L 2310 4141 
L 1632 4141 
L 1632 5376 
z
" transform="scale(0.015625)"/>
       <path id="SourceHanSansSC-Regular-672c" d="M 3450 5370 
L 2944 5370 
L 2944 4026 
L 416 4026 
L 416 3539 
L 2349 3539 
C 1882 2451 1088 1414 237 896 
C 352 800 512 627 589 506 
C 1517 1139 2336 2285 2835 3539 
L 2944 3539 
L 2944 1171 
L 1446 1171 
L 1446 685 
L 2944 685 
L 2944 -512 
L 3450 -512 
L 3450 685 
L 4941 685 
L 4941 1171 
L 3450 1171 
L 3450 3539 
L 3539 3539 
C 4032 2291 4851 1133 5798 518 
C 5888 653 6054 838 6176 934 
C 5286 1446 4480 2458 4019 3539 
L 5997 3539 
L 5997 4026 
L 3450 4026 
L 3450 5370 
z
" transform="scale(0.015625)"/>
       <path id="SourceHanSansSC-Regular-5e8f" d="M 2662 3078 
L 2374 2797 
C 2803 2611 3315 2368 3731 2150 
L 1472 2150 
L 1472 1734 
L 3469 1734 
L 3469 51 
C 3469 -45 3437 -70 3309 -77 
C 3187 -83 2758 -83 2285 -70 
C 2349 -205 2426 -384 2451 -518 
C 3027 -518 3411 -518 3642 -448 
C 3878 -378 3949 -243 3949 45 
L 3949 1734 
L 5331 1734 
C 5114 1440 4877 1139 4672 934 
L 5050 742 
C 5382 1062 5741 1568 6074 2029 
L 5728 2176 
L 5645 2150 
L 4461 2150 
L 4512 2202 
C 4378 2278 4211 2368 4026 2458 
C 4557 2746 5107 3155 5485 3546 
L 5171 3782 
L 5062 3757 
L 1843 3757 
L 1843 3360 
L 4634 3360 
C 4339 3104 3962 2842 3610 2662 
C 3290 2810 2950 2957 2662 3078 
z
M 3475 5408 
L 3014 5274 
C 3110 5088 3226 4858 3309 4659 
L 768 4659 
L 768 2880 
C 768 1952 723 653 198 -262 
C 307 -314 518 -448 602 -531 
C 1152 442 1235 1888 1235 2880 
L 1235 4211 
L 6086 4211 
L 6086 4659 
L 3859 4659 
C 3770 4870 3610 5178 3475 5408 
z
" transform="scale(0.015625)"/>
       <path id="SourceHanSansSC-Regular-53f7" d="M 1664 3821 
L 1664 4685 
L 4710 4685 
L 4710 3821 
L 1664 3821 
z
M 5216 5114 
L 1184 5114 
L 1184 3392 
L 5216 3392 
L 5216 5114 
z
M 5222 1658 
L 2016 1658 
L 2253 2374 
L 5971 2374 
L 5971 2816 
L 403 2816 
L 403 2374 
L 1722 2374 
C 1594 1971 1434 1530 1299 1222 
L 4653 1222 
C 4531 480 4403 122 4243 -6 
C 4173 -58 4090 -64 3936 -64 
C 3757 -64 3290 -58 2842 -13 
C 2931 -141 2995 -333 3008 -474 
C 3450 -499 3878 -506 4090 -493 
C 4339 -486 4493 -448 4646 -320 
C 4883 -115 5043 365 5197 1440 
C 5210 1510 5222 1658 5222 1658 
z
" transform="scale(0.015625)"/>
      </defs>
      <use xlink:href="#SourceHanSansSC-Regular-6837"/>
      <use xlink:href="#SourceHanSansSC-Regular-672c" x="99.999985"/>
      <use xlink:href="#SourceHanSansSC-Regular-5e8f" x="199.999969"/>
      <use xlink:href="#SourceHanSansSC-Regular-53f7" x="299.999954"/>
     </g>
    </g>
   </g>
   <g id="matplotlib.axis_2">
    <g id="ytick_1">
     <g id="line2d_7">
      <defs>
       <path id="mdf211c847f" d="M 0 0 
L 4 0 
" style="stroke: #262626; stroke-width: 1.5"/>
      </defs>
      <g>
       <use xlink:href="#mdf211c847f" x="54.77" y="331.909759" style="fill: #262626; stroke: #262626; stroke-width: 1.5"/>
      </g>
     </g>
     <g id="text_8">
      <!-- 42 -->
      <g style="fill: #262626" transform="translate(34.62 337.87929) scale(0.15 -0.15)">
       <use xlink:href="#SourceHanSansSC-Regular-34"/>
       <use xlink:href="#SourceHanSansSC-Regular-32" x="55.499985"/>
      </g>
     </g>
    </g>
    <g id="ytick_2">
     <g id="line2d_8">
      <g>
       <use xlink:href="#mdf211c847f" x="54.77" y="264.834863" style="fill: #262626; stroke: #262626; stroke-width: 1.5"/>
      </g>
     </g>
     <g id="text_9">
      <!-- 44 -->
      <g style="fill: #262626" transform="translate(34.62 270.804394) scale(0.15 -0.15)">
       <use xlink:href="#SourceHanSansSC-Regular-34"/>
       <use xlink:href="#SourceHanSansSC-Regular-34" x="55.499985"/>
      </g>
     </g>
    </g>
    <g id="ytick_3">
     <g id="line2d_9">
      <g>
       <use xlink:href="#mdf211c847f" x="54.77" y="197.759967" style="fill: #262626; stroke: #262626; stroke-width: 1.5"/>
      </g>
     </g>
     <g id="text_10">
      <!-- 46 -->
      <g style="fill: #262626" transform="translate(34.62 203.729498) scale(0.15 -0.15)">
       <defs>
        <path id="SourceHanSansSC-Regular-36" d="M 1926 -83 
C 2656 -83 3277 531 3277 1440 
C 3277 2426 2765 2912 1971 2912 
C 1606 2912 1197 2701 909 2349 
C 934 3802 1466 4294 2118 4294 
C 2400 4294 2682 4154 2861 3936 
L 3194 4294 
C 2931 4576 2579 4774 2093 4774 
C 1184 4774 358 4077 358 2240 
C 358 691 1030 -83 1926 -83 
z
M 922 1882 
C 1229 2317 1587 2477 1875 2477 
C 2445 2477 2720 2074 2720 1440 
C 2720 800 2374 378 1926 378 
C 1338 378 986 909 922 1882 
z
" transform="scale(0.015625)"/>
       </defs>
       <use xlink:href="#SourceHanSansSC-Regular-34"/>
       <use xlink:href="#SourceHanSansSC-Regular-36" x="55.499985"/>
      </g>
     </g>
    </g>
    <g id="ytick_4">
     <g id="line2d_10">
      <g>
       <use xlink:href="#mdf211c847f" x="54.77" y="130.68507" style="fill: #262626; stroke: #262626; stroke-width: 1.5"/>
      </g>
     </g>
     <g id="text_11">
      <!-- 48 -->
      <g style="fill: #262626" transform="translate(34.62 136.654602) scale(0.15 -0.15)">
       <defs>
        <path id="SourceHanSansSC-Regular-38" d="M 1792 -83 
C 2669 -83 3258 448 3258 1126 
C 3258 1773 2880 2125 2470 2362 
L 2470 2394 
C 2746 2611 3091 3034 3091 3526 
C 3091 4250 2605 4762 1805 4762 
C 1075 4762 518 4282 518 3571 
C 518 3078 813 2726 1152 2490 
L 1152 2464 
C 723 2234 294 1792 294 1165 
C 294 442 922 -83 1792 -83 
z
M 2112 2547 
C 1555 2765 1050 3014 1050 3571 
C 1050 4026 1363 4326 1798 4326 
C 2298 4326 2592 3962 2592 3494 
C 2592 3149 2426 2829 2112 2547 
z
M 1798 352 
C 1235 352 813 717 813 1216 
C 813 1664 1082 2035 1459 2278 
C 2125 2010 2701 1779 2701 1146 
C 2701 678 2342 352 1798 352 
z
" transform="scale(0.015625)"/>
       </defs>
       <use xlink:href="#SourceHanSansSC-Regular-34"/>
       <use xlink:href="#SourceHanSansSC-Regular-38" x="55.499985"/>
      </g>
     </g>
    </g>
    <g id="ytick_5">
     <g id="line2d_11">
      <g>
       <use xlink:href="#mdf211c847f" x="54.77" y="63.610174" style="fill: #262626; stroke: #262626; stroke-width: 1.5"/>
      </g>
     </g>
     <g id="text_12">
      <!-- 50 -->
      <g style="fill: #262626" transform="translate(34.62 69.579705) scale(0.15 -0.15)">
       <use xlink:href="#SourceHanSansSC-Regular-35"/>
       <use xlink:href="#SourceHanSansSC-Regular-30" x="55.499985"/>
      </g>
     </g>
    </g>
    <g id="text_13">
     <!-- 地磁模值 (µT) -->
     <g style="fill: #262626" transform="translate(24.725938 247.009766) rotate(-90) scale(0.17 -0.17)">
      <defs>
       <path id="SourceHanSansSC-Regular-5730" d="M 3206 493 
L 3206 2726 
L 4064 3091 
L 4064 915 
L 4518 915 
L 4518 3283 
L 5414 3667 
C 5414 2637 5402 1926 5370 1773 
C 5338 1626 5280 1600 5178 1600 
C 5114 1600 4902 1600 4749 1613 
C 4806 1504 4851 1318 4864 1190 
C 5043 1190 5299 1190 5466 1242 
C 5658 1286 5779 1402 5818 1664 
C 5862 1914 5875 2874 5875 4077 
L 5901 4166 
L 5562 4294 
L 5472 4224 
L 5376 4134 
L 4518 3776 
L 4518 5376 
L 4064 5376 
L 4064 3584 
L 3206 3226 
L 3206 4781 
L 2746 4781 
L 2746 3027 
L 2054 2739 
L 2234 2310 
L 2746 2528 
L 2746 499 
C 2746 -198 2957 -371 3693 -371 
C 3859 -371 5094 -371 5274 -371 
C 5946 -371 6099 -83 6176 794 
C 6042 819 5850 896 5741 973 
C 5696 237 5626 70 5254 70 
C 4998 70 3923 70 3712 70 
C 3283 70 3206 141 3206 493 
z
M 211 986 
L 403 506 
C 966 755 1696 1082 2381 1402 
L 2272 1830 
L 1542 1523 
L 1542 3379 
L 2298 3379 
L 2298 3834 
L 1542 3834 
L 1542 5299 
L 1088 5299 
L 1088 3834 
L 269 3834 
L 269 3379 
L 1088 3379 
L 1088 1331 
C 755 1197 454 1075 211 986 
z
" transform="scale(0.015625)"/>
       <path id="SourceHanSansSC-Regular-78c1" d="M 2093 3098 
L 1094 3098 
C 1216 3578 1312 4090 1382 4614 
L 2182 4614 
L 2182 5018 
L 269 5018 
L 269 4614 
L 966 4614 
C 832 3526 595 2496 166 1818 
C 243 1709 352 1472 390 1370 
C 506 1549 608 1741 704 1952 
L 704 -224 
L 1082 -224 
L 1082 301 
L 2093 301 
L 2093 3098 
z
M 1082 2701 
L 1709 2701 
L 1709 691 
L 1082 691 
L 1082 2701 
z
M 5498 5235 
L 5030 5382 
C 4922 5037 4704 4550 4525 4224 
L 3437 4224 
L 3795 4390 
C 3699 4659 3482 5056 3264 5350 
L 2886 5197 
C 3078 4902 3290 4499 3386 4224 
L 2291 4224 
L 2291 3789 
L 6125 3789 
L 6125 4224 
L 4973 4224 
C 5146 4518 5338 4902 5498 5235 
z
M 3731 1184 
L 3398 1120 
C 3475 902 3546 653 3610 403 
L 2752 288 
C 3251 992 3750 1907 4141 2803 
L 3744 2982 
C 3648 2726 3533 2464 3418 2214 
L 2752 2163 
C 3002 2560 3245 3066 3424 3539 
L 3014 3718 
C 2867 3142 2554 2528 2464 2374 
C 2374 2214 2291 2106 2202 2080 
C 2253 1971 2323 1760 2342 1670 
C 2432 1715 2566 1747 3226 1818 
C 2950 1274 2682 832 2566 666 
C 2387 390 2246 198 2118 173 
C 2170 58 2240 -147 2259 -237 
C 2368 -179 2547 -134 3693 45 
C 3725 -115 3750 -269 3770 -403 
L 4122 -333 
C 4064 83 3898 710 3731 1184 
z
M 5715 1222 
L 5376 1139 
C 5466 922 5562 672 5638 422 
L 4698 301 
C 5171 1018 5638 1946 5990 2848 
L 5574 3021 
C 5485 2758 5382 2483 5267 2227 
L 4595 2170 
C 4826 2566 5050 3072 5203 3558 
L 4787 3738 
C 4659 3168 4384 2554 4301 2400 
C 4218 2234 4141 2125 4051 2099 
C 4109 1990 4179 1773 4198 1683 
C 4288 1728 4422 1760 5094 1830 
C 4845 1293 4608 858 4499 698 
C 4333 422 4205 224 4077 192 
C 4128 77 4205 -134 4224 -224 
C 4333 -166 4518 -115 5741 70 
C 5786 -102 5824 -262 5843 -397 
L 6202 -307 
C 6131 109 5933 742 5715 1222 
z
" transform="scale(0.015625)"/>
       <path id="SourceHanSansSC-Regular-6a21" d="M 3021 2208 
L 3021 2669 
L 5248 2669 
L 5248 2208 
L 3021 2208 
z
M 3021 3021 
L 3021 3469 
L 5248 3469 
L 5248 3021 
L 3021 3021 
z
M 5152 5376 
L 4685 5376 
L 4685 4845 
L 3699 4845 
L 3699 5376 
L 3245 5376 
L 3245 4845 
L 2304 4845 
L 2304 4435 
L 3245 4435 
L 3245 3955 
L 3699 3955 
L 3699 4435 
L 4685 4435 
L 4685 3955 
L 5152 3955 
L 5152 4435 
L 6048 4435 
L 6048 4845 
L 5152 4845 
L 5152 5376 
z
M 5715 3834 
L 2573 3834 
L 2573 1850 
L 3878 1850 
C 3853 1658 3827 1485 3782 1318 
L 2176 1318 
L 2176 909 
L 3642 909 
C 3398 416 2938 77 1997 -128 
C 2086 -224 2208 -403 2253 -512 
C 3366 -243 3885 218 4141 896 
C 4461 192 5056 -282 5888 -512 
C 5952 -384 6080 -205 6182 -115 
C 5459 38 4909 390 4602 909 
L 6035 909 
L 6035 1318 
L 4262 1318 
C 4294 1485 4326 1664 4346 1850 
L 5715 1850 
L 5715 3834 
z
M 1581 5376 
L 1120 5376 
L 1120 4141 
L 320 4141 
L 320 3693 
L 1120 3693 
L 1120 3686 
C 947 2816 576 1798 205 1261 
C 288 1146 403 934 461 794 
C 704 1171 934 1754 1120 2381 
L 1120 -506 
L 1581 -506 
L 1581 2790 
C 1754 2451 1952 2048 2035 1830 
L 2336 2176 
C 2234 2374 1747 3174 1581 3424 
L 1581 3693 
L 2240 3693 
L 2240 4141 
L 1581 4141 
L 1581 5376 
z
" transform="scale(0.015625)"/>
       <path id="SourceHanSansSC-Regular-503c" d="M 4346 5344 
L 3834 5376 
C 3814 5184 3782 4954 3750 4723 
L 2106 4723 
L 2106 4294 
L 3674 4294 
C 3635 4077 3597 3872 3552 3699 
L 2445 3699 
L 2445 90 
L 1830 90 
L 1830 -326 
L 6131 -326 
L 6131 90 
L 5562 90 
L 5562 3699 
L 3994 3699 
C 4045 3872 4090 4077 4141 4294 
L 5939 4294 
L 5939 4723 
L 4230 4723 
L 4346 5344 
z
M 2880 90 
L 2880 621 
L 5114 621 
L 5114 90 
L 2880 90 
z
M 2880 2784 
L 2880 3322 
L 5114 3322 
L 5114 2784 
L 2880 2784 
z
M 2880 2426 
L 5114 2426 
L 5114 1875 
L 2880 1875 
L 2880 2426 
z
M 2880 1530 
L 5114 1530 
L 5114 973 
L 2880 973 
L 2880 1530 
z
M 2131 5229 
L 1690 5370 
C 1350 4397 794 3443 205 2816 
C 288 2701 429 2451 474 2342 
C 659 2547 845 2778 1018 3034 
L 1018 -512 
L 1466 -512 
L 1466 3763 
C 1722 4230 1952 4730 2131 5229 
z
" transform="scale(0.015625)"/>
       <path id="SourceHanSansSC-Regular-20" transform="scale(0.015625)"/>
       <path id="SourceHanSansSC-Regular-28" d="M 1530 -1254 
L 1888 -1094 
C 1338 -186 1075 902 1075 1990 
C 1075 3072 1338 4154 1888 5069 
L 1530 5235 
C 941 4275 589 3245 589 1990 
C 589 730 941 -301 1530 -1254 
z
" transform="scale(0.015625)"/>
       <path id="SourceHanSansSC-Regular-b5" d="M 589 -1280 
L 1178 -1280 
C 1139 -730 1133 -422 1126 262 
C 1293 -13 1517 -70 1805 -70 
C 2182 -70 2522 141 2771 589 
L 2784 589 
C 2829 128 3014 -70 3411 -70 
C 3597 -70 3718 -26 3827 13 
L 3750 461 
C 3661 429 3603 416 3533 416 
C 3386 416 3283 499 3283 698 
C 3283 1523 3302 2534 3322 3475 
L 2733 3475 
L 2733 1094 
C 2413 525 2125 422 1811 422 
C 1363 422 1178 736 1178 1344 
L 1178 3475 
L 589 3475 
L 589 -1280 
z
" transform="scale(0.015625)"/>
       <path id="SourceHanSansSC-Regular-54" d="M 1619 0 
L 2214 0 
L 2214 4192 
L 3635 4192 
L 3635 4691 
L 198 4691 
L 198 4192 
L 1619 4192 
L 1619 0 
z
" transform="scale(0.015625)"/>
       <path id="SourceHanSansSC-Regular-29" d="M 634 -1254 
C 1222 -301 1574 730 1574 1990 
C 1574 3245 1222 4275 634 5235 
L 269 5069 
C 819 4154 1094 3072 1094 1990 
C 1094 902 819 -186 269 -1094 
L 634 -1254 
z
" transform="scale(0.015625)"/>
      </defs>
      <use xlink:href="#SourceHanSansSC-Regular-5730"/>
      <use xlink:href="#SourceHanSansSC-Regular-78c1" x="99.999985"/>
      <use xlink:href="#SourceHanSansSC-Regular-6a21" x="199.999969"/>
      <use xlink:href="#SourceHanSansSC-Regular-503c" x="299.999954"/>
      <use xlink:href="#SourceHanSansSC-Regular-20" x="399.999939"/>
      <use xlink:href="#SourceHanSansSC-Regular-28" x="422.399933"/>
      <use xlink:href="#SourceHanSansSC-Regular-b5" x="456.199921"/>
      <use xlink:href="#SourceHanSansSC-Regular-54" x="518.999908"/>
      <use xlink:href="#SourceHanSansSC-Regular-29" x="578.899902"/>
     </g>
    </g>
   </g>
   <g id="line2d_12">
    <path d="M 77.971364 202.518367 
L 78.901278 200.340423 
L 79.831192 200.340423 
L 80.761107 198.90015 
L 81.691021 196.803072 
L 82.620936 196.803072 
L 83.55085 193.33699 
L 84.480764 192.773568 
L 85.410679 191.188667 
L 86.340593 188.229226 
L 87.270507 190.321713 
L 88.200422 188.946037 
L 89.130336 188.173933 
L 90.060251 191.648523 
L 90.990165 190.510499 
L 91.920079 190.510499 
L 92.849994 189.420554 
L 93.779908 189.420554 
L 94.709822 187.78855 
L 95.639737 190.931085 
L 96.569651 190.931085 
L 98.42948 187.085786 
L 99.359394 187.41063 
L 101.219223 187.516601 
L 102.149137 187.786772 
L 103.079052 184.363641 
L 104.008966 186.093319 
L 104.93888 185.823559 
L 105.868795 186.539219 
L 107.728624 188.500316 
L 108.658538 189.19525 
L 109.588452 187.957826 
L 110.518367 191.156858 
L 111.448281 192.631553 
L 112.378195 192.631553 
L 113.30811 195.02327 
L 114.238024 195.884843 
L 115.167939 193.701739 
L 116.097853 193.801099 
L 117.027767 195.483495 
L 117.957682 193.929798 
L 118.887596 195.235056 
L 119.81751 194.598441 
L 120.747425 191.419761 
L 121.677339 190.190936 
L 122.607254 192.103355 
L 123.537168 192.133629 
L 124.467082 192.520535 
L 125.396997 193.402031 
L 126.326911 190.366207 
L 127.256825 189.892007 
L 128.18674 192.761724 
L 129.116654 192.306848 
L 130.046569 191.591941 
L 130.976483 192.778814 
L 131.906397 189.459452 
L 132.836312 189.459452 
L 133.766226 192.914893 
L 134.69614 192.914893 
L 135.626055 190.946318 
L 136.555969 191.738995 
L 137.485884 193.382608 
L 140.275627 189.246793 
L 141.205541 189.515849 
L 142.135455 188.15124 
L 143.06537 188.503133 
L 143.995284 187.458067 
L 144.925199 184.737263 
L 145.855113 186.382315 
L 146.785027 188.356698 
L 147.714942 192.107185 
L 148.644856 189.94788 
L 150.504685 188.935518 
L 152.364514 188.938862 
L 153.294428 186.689827 
L 154.224342 186.19387 
L 155.154257 186.19387 
L 157.014085 189.306096 
L 157.944 190.315503 
L 158.873914 190.57833 
L 159.803829 192.512207 
L 160.733743 193.816478 
L 161.663657 196.068619 
L 162.593572 194.560106 
L 163.523486 193.306593 
L 164.4534 193.599365 
L 165.383315 193.728157 
L 166.313229 195.791419 
L 168.173058 197.398135 
L 169.102972 198.593018 
L 170.962801 201.643984 
L 171.892715 201.343593 
L 173.752544 198.9595 
L 174.682459 199.168894 
L 175.612373 197.650992 
L 176.542287 197.633141 
L 177.472202 197.840186 
L 178.402116 198.296042 
L 180.261945 199.803715 
L 181.191859 199.987795 
L 182.121774 199.936341 
L 183.051688 200.004585 
L 183.981602 198.079168 
L 184.911517 198.365517 
L 185.841431 200.529894 
L 186.771345 201.946285 
L 187.70126 201.937417 
L 188.631174 202.115332 
L 189.561089 202.484993 
L 190.491003 203.471264 
L 191.420917 203.554315 
L 192.350832 200.834586 
L 193.280746 198.810018 
L 194.21066 196.029433 
L 195.140575 195.253961 
L 196.070489 195.898391 
L 197.000404 195.271025 
L 197.930318 193.910228 
L 198.860232 194.426848 
L 199.790147 196.264937 
L 200.720061 194.549277 
L 202.57989 194.348237 
L 203.509804 194.807288 
L 204.439719 194.422841 
L 205.369633 195.496661 
L 206.299547 196.129877 
L 207.229462 195.269725 
L 208.159376 196.960547 
L 209.08929 197.245497 
L 210.019205 197.970037 
L 210.949119 197.494259 
L 211.879034 198.693941 
L 212.808948 197.656199 
L 213.738862 198.076834 
L 214.668777 198.368123 
L 215.598691 198.068965 
L 216.528605 197.640737 
L 217.45852 197.067831 
L 218.388434 195.477754 
L 219.318349 195.655954 
L 220.248263 195.655954 
L 221.178177 194.031672 
L 222.108092 195.643382 
L 223.038006 193.84029 
L 223.96792 194.428093 
L 225.827749 194.546341 
L 227.687578 195.725149 
L 228.617492 196.509044 
L 229.547407 194.882618 
L 230.477321 196.131544 
L 231.407235 196.546722 
L 232.33715 195.653786 
L 233.267064 196.393246 
L 234.196979 195.185654 
L 235.126893 197.748976 
L 236.056807 197.748976 
L 236.986722 197.260142 
L 237.916636 197.182363 
L 238.84655 196.777924 
L 239.776465 198.890879 
L 240.706379 198.890879 
L 241.636293 200.513208 
L 242.566208 200.513208 
L 243.496122 197.336296 
L 244.426037 200.090495 
L 245.355951 199.764435 
L 246.285865 199.892385 
L 247.21578 198.678142 
L 250.005523 194.417225 
L 250.935437 193.63194 
L 251.865352 192.126493 
L 252.795266 192.619169 
L 253.72518 192.290196 
L 254.655095 193.689247 
L 255.585009 192.398819 
L 256.514923 193.98784 
L 257.444838 195.346106 
L 258.374752 195.578744 
L 259.304667 195.268858 
L 260.234581 194.148926 
L 261.164495 193.711597 
L 262.09441 193.711597 
L 263.024324 195.808651 
L 263.954238 195.379857 
L 264.884153 193.671878 
L 266.743982 194.014405 
L 267.673896 193.641857 
L 268.60381 196.921502 
L 270.463639 196.64236 
L 271.393553 196.189919 
L 272.323468 197.362712 
L 273.253382 197.247287 
L 274.183297 195.867568 
L 275.113211 196.758663 
L 276.043125 194.289065 
L 276.97304 193.122173 
L 277.902954 194.011549 
L 278.832868 195.498829 
L 279.762783 196.662856 
L 280.692697 199.782418 
L 281.622612 203.305225 
L 282.552526 203.305225 
L 284.412355 206.475563 
L 285.342269 206.167188 
L 286.272183 199.409604 
L 287.202098 199.409604 
L 289.061927 192.450901 
L 289.991841 192.758913 
L 290.921755 191.766343 
L 291.85167 191.341748 
L 292.781584 191.81892 
L 293.711498 196.345502 
L 294.641413 198.723846 
L 295.571327 199.430243 
L 296.501242 199.746617 
L 297.431156 201.593629 
L 298.36107 200.727054 
L 299.290985 200.014583 
L 300.220899 198.843084 
L 301.150813 198.07526 
L 302.080728 198.930123 
L 303.010642 198.930123 
L 303.940557 199.291145 
L 304.870471 195.942299 
L 305.800385 196.491057 
L 306.7303 196.254477 
L 307.660214 196.421437 
L 310.449957 196.082927 
L 311.379872 195.644683 
L 312.309786 196.928728 
L 313.2397 195.98277 
L 314.169615 195.899258 
L 315.099529 195.694261 
L 316.959358 193.1265 
L 317.889272 190.541444 
L 318.819187 189.611811 
L 319.749101 189.881318 
L 320.679015 191.028658 
L 321.60893 193.018042 
L 322.538844 193.018042 
L 323.468758 195.841056 
L 324.398673 195.841056 
L 325.328587 199.481682 
L 326.258502 199.481682 
L 327.188416 201.171359 
L 328.11833 202.042859 
L 329.978159 201.908582 
L 330.908073 200.796151 
L 332.767902 201.856041 
L 333.697817 201.871546 
L 334.627731 198.831097 
L 335.557645 197.598474 
L 336.48756 197.566574 
L 337.417474 198.445257 
L 338.347388 199.699515 
L 339.277303 198.543184 
L 340.207217 198.596329 
L 341.137132 199.270289 
L 342.067046 200.853681 
L 342.99696 202.099933 
L 343.926875 199.116488 
L 346.716618 199.220161 
L 347.646532 198.955969 
L 348.576447 197.923002 
L 349.506361 198.20535 
L 350.436275 197.233455 
L 351.36619 197.171852 
L 352.296104 196.164227 
L 353.226018 195.759719 
L 354.155933 195.680608 
L 355.085847 196.799385 
L 356.015762 197.355606 
L 356.945676 196.448607 
L 357.87559 193.495096 
L 358.805505 192.464515 
L 359.735419 194.971654 
L 360.665333 194.581752 
L 361.595248 195.072721 
L 362.525162 193.103401 
L 363.455077 192.890878 
L 364.384991 192.84047 
L 365.314905 196.245804 
L 366.24482 197.27945 
L 367.174734 195.116863 
L 368.104648 195.719037 
L 369.034563 194.244079 
L 369.964477 195.705153 
L 370.894392 196.41493 
L 371.824306 196.636071 
L 372.75422 197.109414 
L 373.684135 197.025407 
L 374.614049 197.904431 
L 375.543963 196.263907 
L 376.473878 197.476532 
L 377.403792 197.251312 
L 378.333707 197.285796 
L 379.263621 196.73459 
L 380.193535 195.92474 
L 381.12345 195.519849 
L 382.053364 195.981807 
L 382.983278 194.897132 
L 383.913193 194.135273 
L 384.843107 190.305028 
L 385.773021 190.875384 
L 386.702936 190.875384 
L 387.63285 189.677927 
L 388.562765 189.329827 
L 389.492679 189.329827 
L 390.422593 191.440308 
L 391.352508 192.655078 
L 392.282422 196.504055 
L 393.212336 196.504055 
L 394.142251 196.009501 
L 395.072165 197.234811 
L 396.00208 196.684002 
L 396.931994 198.997672 
L 397.861908 198.866216 
L 398.791823 197.989572 
L 399.721737 198.831456 
L 400.651651 195.959412 
L 402.51148 193.561325 
L 404.371309 194.56016 
L 405.301223 194.56016 
L 406.231138 195.981145 
L 407.161052 195.981145 
L 408.090966 197.39016 
L 409.020881 197.898571 
L 411.810624 197.554421 
L 412.740538 197.58095 
L 414.600367 195.817267 
L 415.530281 198.272432 
L 416.460196 199.600536 
L 417.39011 199.364968 
L 418.320025 200.010508 
L 419.249939 200.441462 
L 420.179853 197.694014 
L 421.109768 198.713648 
L 422.039682 193.670794 
L 422.969596 193.670794 
L 424.829425 191.939521 
L 425.75934 192.672004 
L 426.689254 192.672004 
L 427.619168 194.140591 
L 428.549083 195.108955 
L 429.478997 195.108955 
L 430.408911 196.554813 
L 431.338826 197.039778 
L 432.26874 200.500162 
L 433.198655 199.682021 
L 434.128569 197.933464 
L 435.058483 197.244357 
L 435.988398 196.929311 
L 436.918312 197.527622 
L 437.848226 195.519849 
L 438.778141 194.289065 
L 439.708055 192.385896 
L 440.63797 193.252276 
L 441.567884 194.369676 
L 442.497798 194.580994 
L 443.427713 195.698002 
L 444.357627 196.247983 
L 445.287541 198.993938 
L 446.217456 203.026503 
L 447.14737 201.137828 
L 448.077285 201.137828 
L 449.007199 200.978675 
L 449.937113 202.756486 
L 450.867028 202.61774 
L 451.796942 201.167453 
L 452.726856 201.167453 
L 453.656771 197.933082 
L 454.586685 197.453911 
L 455.5166 198.299137 
L 456.446514 198.084607 
L 457.376428 197.591421 
L 458.306343 198.649218 
L 459.236257 198.789833 
L 460.166171 199.59456 
L 461.096086 198.381638 
L 462.026 197.416427 
L 462.955915 199.705372 
L 463.885829 200.36863 
L 464.815743 197.974161 
L 466.675572 197.569015 
L 467.605486 198.358353 
L 468.535401 198.358353 
L 469.465315 199.942905 
L 470.39523 199.160639 
L 471.325144 199.160639 
L 472.255058 201.60482 
L 473.184973 201.428501 
L 475.974716 198.825438 
L 476.90463 195.600253 
L 477.834545 196.120542 
L 478.764459 195.555391 
L 479.694373 195.323746 
L 480.624288 195.80979 
L 481.554202 195.784482 
L 482.484116 195.632492 
L 483.414031 196.66215 
L 484.343945 196.43488 
L 485.27386 195.899866 
L 486.203774 196.36793 
L 487.133688 194.779561 
L 488.063603 195.458032 
L 488.993517 194.176804 
L 489.923431 194.176804 
L 490.853346 193.488764 
L 491.78326 194.49627 
L 492.713175 194.92616 
L 493.643089 194.990014 
L 494.573003 194.942408 
L 495.502918 195.069157 
L 496.432832 194.573307 
L 497.362746 197.09027 
L 498.292661 197.228031 
L 499.222575 197.944208 
L 501.082404 196.681289 
L 502.942233 196.556385 
L 503.872147 198.208606 
L 504.802061 197.653106 
L 505.731976 196.766646 
L 506.66189 196.074527 
L 507.591805 195.708566 
L 508.521719 196.729275 
L 509.451633 196.429188 
L 510.381548 196.429188 
L 511.311462 193.383365 
L 512.241376 193.383365 
L 513.171291 194.336382 
L 514.101205 194.336382 
L 515.03112 195.161822 
L 515.961034 196.466107 
L 516.890948 196.011929 
L 517.820863 196.339091 
L 518.750777 198.596981 
L 519.680691 198.971336 
L 520.610606 200.261674 
L 521.54052 202.588022 
L 522.470435 203.462821 
L 523.400349 203.39562 
L 524.330263 201.335969 
L 525.260178 201.335969 
L 526.190092 200.067618 
L 527.120006 201.057114 
L 528.049921 199.353659 
L 529.909749 197.092939 
L 530.839664 200.271511 
L 531.769578 200.271511 
L 532.699493 200.516305 
L 533.629407 198.442044 
L 534.559321 200.671116 
L 535.489236 200.292162 
L 536.41915 200.964854 
L 537.349064 203.210533 
L 538.278979 209.063041 
L 539.208893 208.648176 
L 540.138808 210.923906 
L 541.068722 211.372759 
L 541.998636 209.888318 
L 541.998636 209.888318 
" clip-path="url(#pcdf06d4f7c)" style="fill: none; stroke: #1c3885; stroke-width: 2; stroke-linecap: round"/>
   </g>
   <g id="line2d_13">
    <path d="M 77.971364 188.355133 
L 78.901278 185.011417 
L 79.831192 184.283174 
L 80.761107 182.091892 
L 81.691021 182.091892 
L 82.620936 181.339502 
L 83.55085 180.896822 
L 84.480764 184.575106 
L 85.410679 182.532447 
L 87.270507 180.588673 
L 88.200422 180.762703 
L 89.130336 182.513266 
L 90.060251 181.458269 
L 90.990165 182.529721 
L 91.920079 179.205435 
L 92.849994 182.338879 
L 93.779908 183.541627 
L 94.709822 183.9202 
L 95.639737 185.847564 
L 96.569651 185.340948 
L 97.499565 186.376652 
L 98.42948 186.225374 
L 99.359394 187.088384 
L 100.289309 184.91434 
L 101.219223 184.91434 
L 102.149137 185.511742 
L 103.079052 184.941515 
L 104.008966 185.414681 
L 104.93888 184.461435 
L 105.868795 183.349049 
L 107.728624 185.39332 
L 109.588452 185.338108 
L 110.518367 184.604903 
L 111.448281 181.740653 
L 112.378195 181.044639 
L 114.238024 181.98259 
L 115.167939 182.779344 
L 116.097853 184.625584 
L 117.027767 184.981119 
L 117.957682 184.307799 
L 118.887596 187.232426 
L 119.81751 188.472702 
L 120.747425 190.887277 
L 121.677339 187.153857 
L 122.607254 184.400157 
L 123.537168 184.400157 
L 124.467082 183.242886 
L 125.396997 183.690327 
L 126.326911 183.498497 
L 127.256825 183.526184 
L 128.18674 181.070833 
L 130.046569 187.289281 
L 130.976483 188.054347 
L 131.906397 189.825448 
L 132.836312 189.728071 
L 133.766226 188.113549 
L 134.69614 187.176638 
L 135.626055 188.55107 
L 136.555969 189.345045 
L 137.485884 188.617195 
L 138.415798 186.661815 
L 139.345712 185.428361 
L 140.275627 185.544148 
L 141.205541 187.233275 
L 142.135455 187.233275 
L 143.06537 189.327939 
L 143.995284 186.462086 
L 144.925199 185.052152 
L 145.855113 184.555052 
L 146.785027 184.243093 
L 147.714942 183.688608 
L 148.644856 182.807717 
L 149.57477 182.417636 
L 150.504685 181.584601 
L 151.434599 182.818896 
L 152.364514 183.664842 
L 154.224342 184.646221 
L 155.154257 187.874011 
L 156.084171 188.222486 
L 157.944 188.274511 
L 158.873914 186.767673 
L 159.803829 186.704103 
L 160.733743 188.12482 
L 161.663657 187.253538 
L 162.593572 187.253538 
L 163.523486 186.623684 
L 164.4534 186.750981 
L 165.383315 186.750981 
L 166.313229 190.338344 
L 167.243144 190.338344 
L 168.173058 193.748233 
L 169.102972 194.559879 
L 170.032887 194.559879 
L 170.962801 194.038815 
L 171.892715 193.14987 
L 172.82263 190.645731 
L 173.752544 190.645731 
L 174.682459 186.630161 
L 175.612373 186.155741 
L 176.542287 186.81338 
L 177.472202 186.81338 
L 178.402116 186.967902 
L 179.33203 188.742175 
L 180.261945 188.742175 
L 181.191859 189.108865 
L 182.121774 189.108865 
L 183.051688 190.175926 
L 183.981602 190.175926 
L 184.911517 192.408986 
L 185.841431 190.804363 
L 186.771345 188.392182 
L 187.70126 190.399255 
L 188.631174 190.724803 
L 189.561089 192.417647 
L 190.491003 192.083184 
L 191.420917 191.362592 
L 192.350832 190.444725 
L 193.280746 192.697151 
L 194.21066 194.199312 
L 195.140575 191.487253 
L 196.070489 191.767845 
L 197.000404 190.056932 
L 197.930318 189.805367 
L 198.860232 189.678791 
L 199.790147 188.022751 
L 200.720061 188.192707 
L 201.649975 187.770491 
L 202.57989 189.846662 
L 203.509804 190.675104 
L 204.439719 190.435759 
L 205.369633 191.871619 
L 206.299547 192.29036 
L 207.229462 194.83182 
L 208.159376 194.059384 
L 209.08929 195.670366 
L 210.019205 194.95546 
L 210.949119 195.061834 
L 211.879034 194.04098 
L 212.808948 194.04098 
L 213.738862 195.382471 
L 214.668777 196.263311 
L 215.598691 195.840785 
L 216.528605 196.491911 
L 217.45852 198.286543 
L 218.388434 197.133942 
L 219.318349 196.82075 
L 220.248263 194.353111 
L 221.178177 195.531553 
L 222.108092 193.10059 
L 223.038006 192.775407 
L 223.96792 190.029777 
L 224.897835 190.029777 
L 225.827749 189.311602 
L 226.757664 188.311775 
L 227.687578 189.860157 
L 228.617492 189.327304 
L 229.547407 189.327304 
L 230.477321 189.994793 
L 231.407235 191.607385 
L 232.33715 193.91265 
L 233.267064 194.777136 
L 234.196979 192.786223 
L 235.126893 191.232864 
L 236.056807 191.18213 
L 236.986722 189.877703 
L 237.916636 189.734332 
L 238.84655 189.048816 
L 240.706379 189.030202 
L 241.636293 188.093491 
L 242.566208 192.407416 
L 243.496122 192.407416 
L 244.426037 195.163879 
L 245.355951 193.894627 
L 246.285865 194.813096 
L 247.21578 191.93896 
L 248.145694 193.2803 
L 249.075608 191.712879 
L 250.005523 189.917608 
L 250.935437 189.901142 
L 251.865352 188.91286 
L 252.795266 189.884138 
L 253.72518 190.182783 
L 254.655095 191.980266 
L 255.585009 191.540373 
L 256.514923 193.178919 
L 257.444838 192.964709 
L 258.374752 190.992127 
L 259.304667 191.222867 
L 260.234581 189.72042 
L 261.164495 187.237601 
L 262.09441 187.976974 
L 263.024324 190.054772 
L 263.954238 189.63433 
L 264.884153 190.668686 
L 265.814067 190.668686 
L 266.743982 192.957787 
L 267.673896 192.957787 
L 268.60381 192.201813 
L 269.533725 191.064464 
L 270.463639 191.064464 
L 271.393553 189.846016 
L 272.323468 189.658388 
L 273.253382 187.775247 
L 274.183297 187.288364 
L 275.113211 188.637476 
L 276.043125 188.151941 
L 276.97304 190.109895 
L 277.902954 190.044407 
L 278.832868 189.555625 
L 279.762783 189.759431 
L 280.692697 192.238834 
L 281.622612 194.267477 
L 282.552526 195.980169 
L 283.48244 197.280493 
L 284.412355 197.280493 
L 285.342269 195.158896 
L 286.272183 196.146232 
L 287.202098 196.098537 
L 288.132012 195.243073 
L 289.061927 195.243073 
L 289.991841 194.990718 
L 290.921755 193.263042 
L 291.85167 192.619656 
L 292.781584 193.728157 
L 293.711498 193.923691 
L 294.641413 193.923691 
L 295.571327 190.398013 
L 296.501242 190.398013 
L 297.431156 186.929636 
L 298.36107 186.301796 
L 299.290985 186.8034 
L 300.220899 185.780594 
L 301.150813 187.049426 
L 302.080728 189.157309 
L 303.010642 188.978778 
L 303.940557 187.206816 
L 304.870471 188.82951 
L 305.800385 188.596807 
L 306.7303 188.585966 
L 307.660214 189.299007 
L 308.590128 187.682298 
L 309.520043 187.682298 
L 310.449957 189.241862 
L 311.379872 190.413728 
L 312.309786 191.18991 
L 313.2397 192.229968 
L 314.169615 191.341303 
L 316.959358 189.516065 
L 317.889272 189.432643 
L 318.819187 190.331 
L 319.749101 191.057818 
L 320.679015 190.516763 
L 321.60893 189.706439 
L 322.538844 190.120099 
L 323.468758 192.038486 
L 324.398673 191.904429 
L 325.328587 191.5026 
L 326.258502 191.5026 
L 327.188416 189.283906 
L 328.11833 189.011641 
L 329.048245 192.148766 
L 330.908073 192.107518 
L 331.837988 191.729362 
L 332.767902 191.999403 
L 333.697817 191.246964 
L 334.627731 193.675664 
L 335.557645 193.431952 
L 336.48756 191.76244 
L 337.417474 191.76244 
L 338.347388 192.699098 
L 339.277303 192.315986 
L 340.207217 193.471233 
L 341.137132 194.353867 
L 342.99696 193.984528 
L 343.926875 193.559593 
L 344.856789 192.839929 
L 345.786703 190.676678 
L 346.716618 190.676678 
L 347.646532 191.398579 
L 348.576447 189.806016 
L 349.506361 187.93255 
L 350.436275 188.94783 
L 351.36619 188.907679 
L 352.296104 191.787681 
L 353.226018 190.380402 
L 354.155933 191.561665 
L 355.085847 191.070785 
L 356.015762 191.516812 
L 356.945676 191.035994 
L 357.87559 191.035994 
L 358.805505 192.260202 
L 359.735419 191.837405 
L 360.665333 192.56931 
L 361.595248 191.723363 
L 362.525162 193.35983 
L 363.455077 191.987954 
L 364.384991 192.437966 
L 365.314905 192.437966 
L 366.24482 188.273594 
L 367.174734 188.273594 
L 368.104648 189.87669 
L 369.034563 191.189586 
L 369.964477 191.189586 
L 371.824306 193.655317 
L 372.75422 193.655317 
L 373.684135 193.945396 
L 374.614049 194.488798 
L 375.543963 194.105772 
L 376.473878 192.556711 
L 377.403792 192.884604 
L 378.333707 191.016275 
L 379.263621 191.016275 
L 380.193535 191.809636 
L 381.12345 191.906873 
L 382.053364 191.333036 
L 382.983278 191.611645 
L 383.913193 190.814787 
L 384.843107 190.628286 
L 385.773021 191.346275 
L 386.702936 189.796947 
L 387.63285 189.796947 
L 388.562765 191.108224 
L 389.492679 191.104657 
L 390.422593 190.573793 
L 391.352508 190.813545 
L 392.282422 191.571284 
L 393.212336 189.617219 
L 394.142251 190.283969 
L 395.072165 189.5716 
L 396.00208 190.752942 
L 396.931994 191.522216 
L 397.861908 193.437308 
L 398.791823 193.415612 
L 399.721737 193.010361 
L 400.651651 194.189849 
L 401.581566 195.560269 
L 402.51148 193.857403 
L 403.441395 193.14381 
L 404.371309 194.648732 
L 405.301223 193.099723 
L 406.231138 193.034378 
L 407.161052 194.939604 
L 408.090966 193.255684 
L 409.020881 191.172515 
L 409.950795 192.858428 
L 410.88071 192.858428 
L 411.810624 192.073515 
L 412.740538 191.099254 
L 413.670453 191.099254 
L 414.600367 190.711731 
L 415.530281 188.904658 
L 416.460196 190.065624 
L 417.39011 192.182729 
L 418.320025 191.649044 
L 419.249939 192.093258 
L 420.179853 191.615536 
L 421.109768 190.326248 
L 422.969596 191.173594 
L 423.899511 190.696123 
L 424.829425 191.173594 
L 425.75934 191.893091 
L 426.689254 191.337252 
L 427.619168 192.056715 
L 428.549083 195.811143 
L 430.408911 195.775379 
L 431.338826 194.208351 
L 432.26874 195.091948 
L 433.198655 195.091948 
L 434.128569 193.246109 
L 435.058483 192.588669 
L 436.918312 189.329246 
L 437.848226 189.788364 
L 438.778141 191.516867 
L 439.708055 189.279753 
L 441.567884 189.315799 
L 442.497798 189.513906 
L 443.427713 188.350225 
L 444.357627 189.079244 
L 445.287541 185.972006 
L 446.217456 185.198172 
L 447.14737 188.236439 
L 448.077285 188.40766 
L 449.007199 188.962871 
L 449.937113 191.468449 
L 450.867028 191.468449 
L 451.796942 191.352164 
L 452.726856 196.311663 
L 453.656771 196.311663 
L 454.586685 196.083697 
L 455.5166 196.083697 
L 456.446514 196.37552 
L 457.376428 193.820535 
L 458.306343 192.740428 
L 459.236257 187.902141 
L 460.166171 187.902141 
L 461.096086 187.162196 
L 462.026 181.374084 
L 462.955915 180.778428 
L 463.885829 185.323132 
L 464.815743 182.743664 
L 465.745658 184.551448 
L 466.675572 185.60202 
L 467.605486 186.125314 
L 468.535401 187.838363 
L 469.465315 187.838363 
L 470.39523 191.936062 
L 471.325144 193.773236 
L 472.255058 190.823646 
L 473.184973 192.225439 
L 474.114887 193.005818 
L 475.044801 193.005818 
L 475.974716 191.414791 
L 476.90463 191.994699 
L 477.834545 190.160647 
L 478.764459 187.76979 
L 479.694373 187.063329 
L 480.624288 186.195807 
L 481.554202 188.273378 
L 482.484116 187.657718 
L 483.414031 187.657718 
L 484.343945 185.524285 
L 485.27386 186.761809 
L 486.203774 189.919963 
L 487.133688 189.074064 
L 488.063603 188.960118 
L 488.993517 187.732755 
L 489.923431 188.027656 
L 490.853346 189.922237 
L 491.78326 189.922237 
L 492.713175 187.490568 
L 493.643089 187.490568 
L 494.573003 183.97571 
L 496.432832 185.966192 
L 498.292661 186.044702 
L 499.222575 184.771912 
L 500.15249 186.076581 
L 502.012318 190.424689 
L 502.942233 188.560777 
L 504.802061 188.611208 
L 505.731976 190.542633 
L 506.66189 189.950107 
L 507.591805 189.682365 
L 508.521719 188.777024 
L 509.451633 190.410703 
L 510.381548 190.870099 
L 511.311462 191.914266 
L 512.241376 194.532535 
L 513.171291 194.647758 
L 514.101205 194.647758 
L 515.03112 195.878773 
L 515.961034 196.17535 
L 516.890948 196.17535 
L 518.750777 195.93184 
L 519.680691 194.89464 
L 520.610606 193.242971 
L 521.54052 194.43459 
L 522.470435 194.318517 
L 523.400349 193.357341 
L 524.330263 193.411392 
L 525.260178 193.954499 
L 526.190092 194.066541 
L 527.120006 193.290201 
L 528.049921 192.848421 
L 528.979835 193.622687 
L 529.909749 192.443319 
L 530.839664 193.531185 
L 531.769578 194.047542 
L 532.699493 193.384016 
L 533.629407 194.063714 
L 534.559321 194.063714 
L 535.489236 196.143847 
L 536.41915 195.40624 
L 537.349064 195.902238 
L 538.278979 195.992147 
L 539.208893 194.902614 
L 540.138808 195.009849 
L 541.068722 194.163042 
L 541.998636 192.378068 
L 541.998636 192.378068 
" clip-path="url(#pcdf06d4f7c)" style="fill: none; stroke: #4f8cbb; stroke-width: 2; stroke-linecap: round"/>
   </g>
   <g id="line2d_14">
    <path d="M 77.971364 189.364959 
L 78.901278 186.089557 
L 79.831192 185.25623 
L 80.761107 187.320086 
L 81.691021 184.174955 
L 82.620936 184.180441 
L 83.55085 183.353404 
L 84.480764 183.495595 
L 85.410679 183.321097 
L 86.340593 184.733982 
L 87.270507 184.766748 
L 88.200422 182.365632 
L 89.130336 183.656831 
L 90.060251 182.0696 
L 90.990165 182.681226 
L 91.920079 183.800997 
L 92.849994 184.032822 
L 93.779908 183.128076 
L 94.709822 182.459595 
L 95.639737 183.299811 
L 96.569651 184.38092 
L 97.499565 185.158332 
L 98.42948 185.038376 
L 100.289309 182.385242 
L 101.219223 181.938927 
L 102.149137 182.532395 
L 103.079052 184.251762 
L 104.008966 182.902243 
L 104.93888 183.001074 
L 105.868795 183.379045 
L 107.728624 183.264432 
L 108.658538 184.891793 
L 109.588452 184.208947 
L 110.518367 184.715472 
L 111.448281 184.63407 
L 112.378195 184.898037 
L 113.30811 185.278244 
L 114.238024 186.538854 
L 115.167939 189.199342 
L 116.097853 190.181392 
L 117.027767 191.849999 
L 117.957682 190.51168 
L 118.887596 191.263782 
L 119.81751 191.112374 
L 120.747425 189.733306 
L 121.677339 187.134875 
L 122.607254 186.782875 
L 123.537168 185.708343 
L 124.467082 185.030411 
L 125.396997 186.242027 
L 126.326911 185.745719 
L 127.256825 184.068897 
L 128.18674 183.98812 
L 129.116654 184.652416 
L 130.046569 183.555175 
L 130.976483 183.555175 
L 131.906397 180.874131 
L 132.836312 178.605998 
L 133.766226 178.487241 
L 134.69614 179.904222 
L 135.626055 181.056877 
L 136.555969 181.322384 
L 137.485884 179.141103 
L 138.415798 179.72782 
L 139.345712 182.327545 
L 140.275627 183.272818 
L 141.205541 185.09289 
L 142.135455 184.307853 
L 143.06537 186.166673 
L 143.995284 185.731818 
L 144.925199 188.606409 
L 145.855113 188.510684 
L 146.785027 189.128613 
L 147.714942 190.033879 
L 148.644856 189.629998 
L 149.57477 190.951787 
L 150.504685 188.267986 
L 151.434599 189.179116 
L 152.364514 188.488828 
L 153.294428 187.291814 
L 154.224342 187.646883 
L 155.154257 187.524849 
L 156.084171 187.175466 
L 157.014085 187.515643 
L 157.944 189.121976 
L 158.873914 189.039049 
L 159.803829 187.461248 
L 160.733743 188.302445 
L 161.663657 186.576992 
L 162.593572 187.14436 
L 163.523486 185.734253 
L 164.4534 184.770075 
L 165.383315 185.545386 
L 166.313229 186.525806 
L 167.243144 190.068054 
L 168.173058 189.665471 
L 169.102972 189.722308 
L 170.032887 188.72432 
L 170.962801 189.685323 
L 172.82263 192.99738 
L 173.752544 191.267919 
L 174.682459 190.49176 
L 175.612373 190.618882 
L 177.472202 194.439029 
L 178.402116 197.290452 
L 179.33203 195.549973 
L 180.261945 193.151654 
L 181.191859 194.953185 
L 182.121774 195.063674 
L 183.051688 196.50297 
L 183.981602 196.055894 
L 184.911517 194.139497 
L 185.841431 193.961253 
L 186.771345 194.897944 
L 187.70126 195.073424 
L 188.631174 194.28311 
L 189.561089 193.927966 
L 190.491003 192.768497 
L 191.420917 192.471652 
L 192.350832 193.809821 
L 193.280746 194.298487 
L 194.21066 192.694892 
L 195.140575 191.57912 
L 196.070489 192.495122 
L 197.000404 191.299808 
L 197.930318 192.774392 
L 198.860232 191.891242 
L 199.790147 190.629206 
L 200.720061 185.575265 
L 201.649975 185.540812 
L 202.57989 188.01888 
L 203.509804 186.358401 
L 204.439719 187.088534 
L 205.369633 185.963337 
L 206.299547 187.096726 
L 207.229462 186.850542 
L 208.159376 189.873383 
L 209.08929 191.88416 
L 210.019205 188.202643 
L 210.949119 190.418049 
L 211.879034 190.820513 
L 212.808948 190.944538 
L 213.738862 190.198226 
L 214.668777 193.070957 
L 215.598691 191.840864 
L 216.528605 189.485466 
L 217.45852 191.181428 
L 218.388434 191.375021 
L 219.318349 189.975736 
L 220.248263 190.109463 
L 221.178177 191.547777 
L 222.108092 189.326106 
L 223.038006 189.85206 
L 224.897835 191.565772 
L 225.827749 190.860538 
L 226.757664 193.622645 
L 227.687578 193.851167 
L 229.547407 190.201357 
L 230.477321 189.025453 
L 231.407235 190.480419 
L 233.267064 188.789442 
L 234.196979 188.789442 
L 235.126893 187.437586 
L 236.056807 189.38935 
L 236.986722 190.503643 
L 237.916636 191.023526 
L 238.84655 191.164787 
L 239.776465 190.654439 
L 240.706379 190.29369 
L 241.636293 190.831004 
L 242.566208 188.571687 
L 243.496122 186.900973 
L 244.426037 186.399443 
L 245.355951 185.241873 
L 246.285865 184.397046 
L 247.21578 185.407867 
L 248.145694 184.134133 
L 249.075608 182.198997 
L 250.005523 183.287513 
L 250.935437 183.565551 
L 251.865352 184.103221 
L 252.795266 185.58883 
L 253.72518 187.7458 
L 254.655095 187.624687 
L 255.585009 188.721246 
L 256.514923 190.185808 
L 258.374752 193.74186 
L 259.304667 194.573197 
L 260.234581 195.178721 
L 261.164495 192.939125 
L 262.09441 194.355654 
L 263.024324 196.417695 
L 263.954238 197.151448 
L 264.884153 196.708345 
L 265.814067 195.068657 
L 266.743982 194.546882 
L 267.673896 194.89464 
L 268.60381 193.965908 
L 269.533725 192.272354 
L 270.463639 192.305443 
L 271.393553 191.924322 
L 272.323468 191.834 
L 273.253382 193.076354 
L 274.183297 193.967208 
L 275.113211 193.60073 
L 276.043125 195.811578 
L 276.97304 196.897262 
L 277.902954 195.701686 
L 278.832868 196.012915 
L 279.762783 195.259324 
L 281.622612 194.652793 
L 282.552526 196.568854 
L 283.48244 196.82487 
L 284.412355 197.320891 
L 285.342269 196.804427 
L 286.272183 196.692514 
L 287.202098 196.713171 
L 288.132012 195.460146 
L 289.061927 195.386357 
L 289.991841 194.66384 
L 290.921755 194.202342 
L 291.85167 193.224806 
L 292.781584 194.937102 
L 294.641413 195.470222 
L 295.571327 198.43515 
L 296.501242 197.017868 
L 297.431156 196.169486 
L 298.36107 195.050621 
L 299.290985 195.991509 
L 300.220899 193.724801 
L 301.150813 192.246673 
L 302.080728 191.016977 
L 303.010642 188.568869 
L 303.940557 189.950363 
L 304.870471 189.287318 
L 305.800385 189.112008 
L 306.7303 188.464226 
L 307.660214 189.955223 
L 308.590128 190.170529 
L 310.449957 192.942316 
L 311.379872 193.314763 
L 313.2397 191.725849 
L 314.169615 191.936226 
L 315.099529 191.648133 
L 316.029443 191.165761 
L 316.959358 190.918283 
L 317.889272 189.025768 
L 318.819187 186.570786 
L 319.749101 187.399591 
L 320.679015 187.164998 
L 322.538844 184.837717 
L 323.468758 186.252465 
L 324.398673 186.955928 
L 325.328587 187.518705 
L 326.258502 190.206164 
L 327.188416 189.942319 
L 328.11833 190.573847 
L 329.048245 189.847311 
L 329.978159 191.840756 
L 331.837988 190.024647 
L 332.767902 189.505208 
L 333.697817 188.039356 
L 334.627731 188.895541 
L 336.48756 192.899641 
L 337.417474 190.927466 
L 339.277303 191.651537 
L 340.207217 192.423691 
L 341.137132 194.336164 
L 342.067046 195.042117 
L 342.99696 194.087586 
L 343.926875 192.948266 
L 344.856789 194.229411 
L 345.786703 195.897212 
L 346.716618 195.139561 
L 347.646532 194.879532 
L 348.576447 191.383287 
L 349.506361 190.497593 
L 350.436275 190.5132 
L 351.36619 191.648189 
L 352.296104 191.756116 
L 353.226018 191.414195 
L 354.155933 192.54952 
L 355.085847 191.802975 
L 356.015762 194.328856 
L 356.945676 194.725518 
L 357.87559 194.163854 
L 359.735419 194.092835 
L 360.665333 193.55521 
L 361.595248 194.251443 
L 362.525162 196.759042 
L 363.455077 197.903174 
L 364.384991 196.77493 
L 365.314905 198.058111 
L 366.24482 196.024556 
L 367.174734 194.932172 
L 368.104648 196.93621 
L 369.964477 192.934799 
L 370.894392 192.042605 
L 371.824306 192.623982 
L 372.75422 192.165903 
L 373.684135 193.014539 
L 374.614049 195.29941 
L 375.543963 192.835278 
L 376.473878 193.668035 
L 377.403792 193.874602 
L 379.263621 193.044547 
L 380.193535 190.985873 
L 381.12345 191.870269 
L 382.053364 192.443643 
L 382.983278 191.040813 
L 383.913193 191.102065 
L 384.843107 190.618781 
L 385.773021 190.484685 
L 386.702936 193.220628 
L 387.63285 193.197745 
L 388.562765 194.024417 
L 389.492679 191.927401 
L 390.422593 193.586432 
L 391.352508 193.715603 
L 392.282422 194.512663 
L 393.212336 196.151706 
L 394.142251 193.728806 
L 395.072165 196.264442 
L 396.00208 195.07234 
L 396.931994 194.157847 
L 397.861908 193.702886 
L 398.791823 193.800295 
L 399.721737 194.501185 
L 400.651651 194.218541 
L 401.581566 193.438877 
L 402.51148 193.293556 
L 403.441395 192.2723 
L 404.371309 195.231643 
L 405.301223 196.507904 
L 406.231138 194.774308 
L 407.161052 191.851512 
L 408.090966 190.632889 
L 409.020881 191.711311 
L 409.950795 190.176576 
L 410.88071 190.594964 
L 411.810624 186.888364 
L 412.740538 185.497005 
L 413.670453 186.938689 
L 414.600367 187.612755 
L 416.460196 190.021084 
L 417.39011 191.162855 
L 418.320025 189.899942 
L 419.249939 192.255919 
L 420.179853 193.142945 
L 421.109768 193.586865 
L 422.039682 195.043309 
L 422.969596 194.435457 
L 423.899511 194.621604 
L 424.829425 196.225217 
L 425.75934 198.061098 
L 426.689254 197.649254 
L 427.619168 195.645333 
L 428.549083 194.984327 
L 429.478997 196.105962 
L 430.408911 195.167021 
L 431.338826 193.162419 
L 432.26874 192.886227 
L 433.198655 192.349886 
L 434.128569 192.009132 
L 435.058483 194.512394 
L 435.988398 193.953081 
L 436.918312 192.896084 
L 437.848226 193.639516 
L 438.778141 194.183463 
L 439.708055 193.59705 
L 440.63797 193.668469 
L 441.567884 196.241467 
L 442.497798 194.212034 
L 443.427713 195.319402 
L 444.357627 193.948373 
L 445.287541 195.739833 
L 446.217456 196.326127 
L 447.14737 195.620571 
L 448.077285 194.329669 
L 449.007199 193.960725 
L 449.937113 195.258728 
L 450.867028 195.593372 
L 451.796942 197.490421 
L 452.726856 195.720922 
L 453.656771 195.162918 
L 454.586685 193.640815 
L 455.5166 194.407791 
L 456.446514 194.209868 
L 457.376428 192.260947 
L 458.306343 192.922846 
L 460.166171 190.174631 
L 462.026 193.66035 
L 462.955915 194.288903 
L 463.885829 192.0147 
L 464.815743 193.107892 
L 465.745658 191.129724 
L 466.675572 188.312305 
L 467.605486 188.426333 
L 468.535401 185.176469 
L 469.465315 185.098435 
L 470.39523 183.184783 
L 471.325144 186.35991 
L 472.255058 185.770742 
L 473.184973 185.535603 
L 474.114887 187.180788 
L 475.044801 187.924407 
L 475.974716 189.104117 
L 476.90463 187.592333 
L 477.834545 188.446113 
L 478.764459 185.802776 
L 479.694373 186.128762 
L 480.624288 188.421036 
L 481.554202 191.694773 
L 482.484116 193.257915 
L 483.414031 193.580331 
L 484.343945 194.614783 
L 485.27386 195.037515 
L 486.203774 197.191745 
L 487.133688 196.730901 
L 488.063603 195.665653 
L 488.993517 193.237507 
L 489.923431 193.08885 
L 490.853346 193.805017 
L 492.713175 193.361832 
L 493.643089 191.225149 
L 494.573003 190.799278 
L 495.502918 190.595894 
L 496.432832 190.85962 
L 497.362746 188.769956 
L 498.292661 187.990454 
L 499.222575 188.902298 
L 500.15249 187.791292 
L 501.082404 187.965181 
L 502.012318 189.770229 
L 502.942233 189.695037 
L 503.872147 189.451734 
L 504.802061 190.3391 
L 506.66189 188.279086 
L 507.591805 189.330907 
L 508.521719 189.707722 
L 509.451633 187.548135 
L 510.381548 187.057498 
L 511.311462 187.572659 
L 512.241376 188.813974 
L 513.171291 190.54814 
L 514.101205 189.012234 
L 515.03112 188.475776 
L 515.961034 189.33679 
L 516.890948 190.505113 
L 518.750777 190.909102 
L 520.610606 188.65134 
L 521.54052 190.368854 
L 522.470435 188.99265 
L 523.400349 188.482856 
L 524.330263 188.914423 
L 525.260178 188.343011 
L 526.190092 189.240146 
L 527.120006 189.126724 
L 528.049921 190.153954 
L 528.979835 189.758731 
L 529.909749 191.970376 
L 531.769578 193.164693 
L 532.699493 194.616083 
L 533.629407 192.350048 
L 534.559321 192.743445 
L 535.489236 191.233511 
L 536.41915 191.143826 
L 537.349064 192.013835 
L 538.278979 191.141893 
L 539.208893 191.035843 
L 540.138808 189.993173 
L 541.068722 189.245865 
L 541.998636 187.937521 
L 541.998636 187.937521 
" clip-path="url(#pcdf06d4f7c)" style="fill: none; stroke: #f4a25c; stroke-width: 2; stroke-linecap: round"/>
   </g>
   <g id="line2d_15">
    <path d="M 77.971364 189.439593 
L 78.901278 189.339541 
L 79.831192 192.527674 
L 80.761107 192.525509 
L 81.691021 193.217382 
L 82.620936 191.92005 
L 83.55085 193.11422 
L 84.480764 192.308526 
L 85.410679 190.568446 
L 86.340593 191.860377 
L 87.270507 190.948263 
L 88.200422 189.702812 
L 89.130336 188.671405 
L 90.060251 189.120088 
L 90.990165 186.67389 
L 91.920079 185.121266 
L 92.849994 184.779176 
L 93.779908 183.668068 
L 94.709822 183.607152 
L 95.639737 181.423424 
L 96.569651 182.373736 
L 97.499565 181.117318 
L 98.42948 182.030499 
L 100.289309 182.858512 
L 101.219223 183.909017 
L 102.149137 183.041933 
L 103.079052 185.424326 
L 104.008966 185.163554 
L 105.868795 185.828634 
L 106.798709 185.748303 
L 107.728624 185.948165 
L 109.588452 182.998918 
L 110.518367 182.03023 
L 111.448281 181.461007 
L 112.378195 180.757564 
L 113.30811 181.021021 
L 114.238024 181.485491 
L 115.167939 181.263492 
L 116.097853 180.879917 
L 117.027767 183.041933 
L 117.957682 183.585646 
L 118.887596 183.808031 
L 119.81751 184.574999 
L 120.747425 182.63458 
L 121.677339 182.85604 
L 122.607254 182.086197 
L 123.537168 182.57381 
L 124.467082 182.089312 
L 125.396997 181.46294 
L 126.326911 180.696214 
L 127.256825 180.596133 
L 128.18674 181.505678 
L 129.116654 180.778428 
L 130.046569 183.304704 
L 130.976483 184.537128 
L 131.906397 184.840138 
L 132.836312 187.992278 
L 133.766226 188.334005 
L 134.69614 187.746978 
L 135.626055 189.002309 
L 136.555969 189.508131 
L 137.485884 188.618975 
L 138.415798 188.093074 
L 139.345712 188.497082 
L 140.275627 185.664466 
L 141.205541 185.909546 
L 142.135455 189.063004 
L 143.06537 188.557973 
L 143.995284 190.133057 
L 144.925199 190.4564 
L 145.855113 189.871872 
L 146.785027 189.586658 
L 147.714942 189.715334 
L 148.644856 188.619515 
L 149.57477 186.486593 
L 150.504685 186.237276 
L 151.434599 185.814137 
L 152.364514 186.560712 
L 153.294428 185.985523 
L 154.224342 186.046423 
L 155.154257 186.6629 
L 156.084171 188.184241 
L 157.014085 188.968202 
L 157.944 187.299778 
L 158.873914 187.624191 
L 159.803829 186.859 
L 160.733743 188.979324 
L 161.663657 187.703807 
L 162.593572 188.556786 
L 163.523486 189.827231 
L 164.4534 190.292243 
L 165.383315 192.302103 
L 166.313229 192.742146 
L 167.243144 192.434301 
L 168.173058 191.387502 
L 169.102972 193.47989 
L 170.032887 191.387988 
L 170.962801 191.064951 
L 171.892715 191.155495 
L 172.82263 190.202287 
L 173.752544 189.627569 
L 174.682459 190.343853 
L 175.612373 192.114005 
L 176.542287 191.970807 
L 177.472202 193.728427 
L 178.402116 193.308553 
L 179.33203 195.503866 
L 180.261945 196.230618 
L 181.191859 198.037327 
L 182.121774 197.162665 
L 183.051688 198.141687 
L 184.911517 197.446196 
L 185.841431 198.007362 
L 186.771345 195.294751 
L 187.70126 195.984354 
L 188.631174 194.438759 
L 189.561089 193.863887 
L 190.491003 191.588794 
L 191.420917 192.32442 
L 192.350832 192.856535 
L 193.280746 193.993241 
L 194.21066 195.400335 
L 195.140575 195.11058 
L 196.070489 194.191624 
L 197.000404 195.553766 
L 197.930318 195.181008 
L 198.860232 195.333984 
L 199.790147 195.623172 
L 200.720061 193.297288 
L 201.649975 191.783085 
L 202.57989 189.611379 
L 203.509804 189.394746 
L 204.439719 188.307028 
L 205.369633 188.990762 
L 206.299547 187.538066 
L 207.229462 186.388832 
L 208.159376 186.582528 
L 209.08929 186.076849 
L 210.019205 185.974591 
L 210.949119 185.754967 
L 211.879034 187.851316 
L 212.808948 186.718064 
L 213.738862 187.696577 
L 214.668777 188.225439 
L 215.598691 187.414134 
L 216.528605 186.212449 
L 217.45852 188.146495 
L 219.318349 187.390385 
L 220.248263 188.596106 
L 222.108092 185.812575 
L 223.96792 188.555062 
L 224.897835 188.437755 
L 226.757664 189.912358 
L 227.687578 188.767636 
L 228.617492 189.871279 
L 229.547407 192.106599 
L 230.477321 191.959457 
L 231.407235 190.292178 
L 232.33715 190.266906 
L 233.267064 191.387988 
L 234.196979 188.552365 
L 235.126893 188.74865 
L 236.056807 191.009414 
L 236.986722 191.45737 
L 237.916636 191.682667 
L 238.84655 192.328908 
L 239.776465 192.543086 
L 240.706379 191.734985 
L 241.636293 192.999936 
L 242.566208 192.517561 
L 243.496122 191.431661 
L 245.355951 187.304466 
L 246.285865 190.413565 
L 247.21578 190.191057 
L 248.145694 190.097814 
L 250.005523 190.429929 
L 250.935437 188.816501 
L 251.865352 188.945456 
L 252.795266 191.533888 
L 253.72518 190.45154 
L 254.655095 191.647214 
L 255.585009 190.588753 
L 256.514923 189.880953 
L 257.444838 189.368465 
L 258.374752 190.688668 
L 259.304667 190.96636 
L 260.234581 190.856595 
L 261.164495 190.513589 
L 262.09441 189.328209 
L 263.024324 192.462622 
L 263.954238 194.19326 
L 264.884153 195.164204 
L 265.814067 192.021295 
L 266.743982 192.659524 
L 267.673896 192.685146 
L 268.60381 192.068759 
L 269.533725 193.358315 
L 270.463639 192.619439 
L 271.393553 190.467958 
L 272.323468 190.814949 
L 273.253382 194.14978 
L 275.113211 193.623228 
L 276.043125 194.859114 
L 276.97304 195.074182 
L 277.902954 193.112501 
L 278.832868 194.672397 
L 279.762783 194.825429 
L 280.692697 194.731365 
L 281.622612 194.965319 
L 282.552526 194.366265 
L 283.48244 193.56863 
L 284.412355 191.505842 
L 285.342269 193.279272 
L 286.272183 192.786604 
L 287.202098 192.518372 
L 288.132012 191.298131 
L 289.061927 190.759423 
L 289.991841 191.902267 
L 290.921755 192.041674 
L 291.85167 194.619981 
L 292.781584 196.229975 
L 293.711498 197.039561 
L 294.641413 197.346657 
L 295.571327 197.033813 
L 296.501242 196.920472 
L 297.431156 197.062873 
L 298.36107 198.555506 
L 300.220899 195.491405 
L 301.150813 194.77799 
L 302.080728 195.393725 
L 303.010642 197.101597 
L 304.870471 197.469739 
L 305.800385 195.540883 
L 306.7303 196.22862 
L 307.660214 194.977395 
L 308.590128 194.918959 
L 309.520043 194.181286 
L 310.449957 194.124392 
L 311.379872 194.95492 
L 314.169615 192.108328 
L 315.099529 192.032648 
L 316.029443 190.872585 
L 316.959358 189.408022 
L 317.889272 189.096025 
L 318.819187 189.2668 
L 319.749101 189.153055 
L 320.679015 191.052212 
L 321.60893 190.732809 
L 322.538844 190.089541 
L 323.468758 191.770115 
L 324.398673 193.680318 
L 325.328587 193.411392 
L 326.258502 193.486383 
L 327.188416 194.370977 
L 328.11833 194.324202 
L 329.048245 193.843374 
L 329.978159 194.724921 
L 330.908073 195.070174 
L 331.837988 193.109189 
L 333.697817 190.441861 
L 334.627731 190.149363 
L 335.557645 190.952801 
L 336.48756 192.190339 
L 337.417474 192.341073 
L 338.347388 189.648133 
L 339.277303 190.647297 
L 340.207217 193.338189 
L 341.137132 194.45917 
L 342.067046 195.292585 
L 342.99696 194.735601 
L 343.926875 194.657506 
L 344.856789 193.745961 
L 345.786703 195.182513 
L 346.716618 196.264442 
L 347.646532 193.631898 
L 349.506361 192.38422 
L 350.436275 192.261921 
L 351.36619 192.960869 
L 352.296104 193.85225 
L 353.226018 195.224615 
L 354.155933 194.087963 
L 355.085847 194.589062 
L 356.945676 192.860862 
L 357.87559 190.921848 
L 358.805505 190.921848 
L 360.665333 187.024627 
L 361.595248 188.111986 
L 362.525162 188.830158 
L 363.455077 190.111581 
L 364.384991 189.223632 
L 365.314905 190.696069 
L 366.24482 191.649107 
L 367.174734 192.023349 
L 368.104648 192.007673 
L 369.964477 189.429824 
L 371.824306 189.509095 
L 372.75422 191.397878 
L 373.684135 192.600999 
L 374.614049 193.101075 
L 375.543963 194.204615 
L 376.473878 195.491405 
L 377.403792 197.440717 
L 378.333707 196.244285 
L 379.263621 198.629891 
L 380.193535 196.595733 
L 381.12345 194.180906 
L 382.053364 194.375362 
L 382.983278 194.861822 
L 383.913193 194.441466 
L 384.843107 194.929789 
L 385.773021 194.68496 
L 386.702936 191.824218 
L 388.562765 193.219979 
L 389.492679 192.887038 
L 390.422593 192.106708 
L 391.352508 192.483182 
L 392.282422 189.842572 
L 393.212336 189.553574 
L 394.142251 190.733672 
L 395.072165 190.671331 
L 396.931994 189.271129 
L 397.861908 190.537339 
L 398.791823 190.547492 
L 399.721737 191.528052 
L 400.651651 190.891286 
L 401.581566 192.567039 
L 402.51148 191.594306 
L 403.441395 193.346845 
L 404.371309 193.439418 
L 405.301223 194.099763 
L 406.231138 194.285655 
L 407.161052 195.464046 
L 408.090966 196.967434 
L 409.020881 195.640078 
L 410.88071 197.683273 
L 411.810624 199.376851 
L 412.740538 195.813811 
L 413.670453 195.966566 
L 414.600367 194.010453 
L 415.530281 193.225445 
L 416.460196 192.774056 
L 417.39011 192.899154 
L 418.320025 190.474858 
L 419.249939 188.777522 
L 420.179853 190.605225 
L 421.109768 189.595943 
L 422.039682 188.2091 
L 422.969596 187.288883 
L 423.899511 187.767486 
L 424.829425 186.896876 
L 425.75934 187.579408 
L 426.689254 188.529764 
L 427.619168 189.206311 
L 428.549083 189.627569 
L 429.478997 192.910404 
L 430.408911 195.076773 
L 431.338826 193.632481 
L 432.26874 193.864806 
L 433.198655 193.540061 
L 434.128569 194.689128 
L 435.058483 193.976518 
L 435.988398 194.877419 
L 436.918312 194.521976 
L 437.848226 194.630865 
L 438.778141 197.103125 
L 439.708055 197.662277 
L 440.63797 196.026466 
L 441.567884 194.017597 
L 442.497798 195.22991 
L 443.427713 196.055027 
L 445.287541 194.278996 
L 446.217456 194.04581 
L 447.14737 194.010561 
L 448.077285 195.377906 
L 449.007199 193.825893 
L 449.937113 192.793158 
L 450.867028 190.132799 
L 451.796942 189.7636 
L 452.726856 187.911684 
L 453.656771 187.911684 
L 454.586685 187.436886 
L 455.5166 187.725415 
L 456.446514 190.261561 
L 457.376428 191.175107 
L 458.306343 192.665961 
L 459.236257 192.927334 
L 460.166171 193.701207 
L 461.096086 193.881205 
L 462.026 193.927102 
L 462.955915 192.662758 
L 463.885829 188.792614 
L 464.815743 186.282515 
L 466.675572 187.613259 
L 467.605486 187.505328 
L 469.465315 190.324426 
L 470.39523 190.681809 
L 471.325144 193.089553 
L 472.255058 193.509704 
L 473.184973 192.187961 
L 475.044801 194.506267 
L 475.974716 195.070133 
L 476.90463 193.83883 
L 477.834545 195.57598 
L 478.764459 198.044166 
L 479.694373 199.168622 
L 480.624288 200.081638 
L 481.554202 198.249962 
L 482.484116 196.860334 
L 483.414031 196.717997 
L 484.343945 196.786046 
L 485.27386 195.084798 
L 486.203774 194.521489 
L 487.133688 193.404142 
L 488.063603 190.631474 
L 488.993517 193.416748 
L 489.923431 194.244133 
L 490.853346 194.854402 
L 491.78326 194.527555 
L 492.713175 195.427868 
L 493.643089 193.972781 
L 495.502918 195.766125 
L 496.432832 193.252061 
L 497.362746 191.528376 
L 498.292661 189.39777 
L 499.222575 190.380517 
L 500.15249 190.160863 
L 501.082404 190.469729 
L 502.012318 190.48674 
L 502.942233 192.653022 
L 503.872147 192.675087 
L 504.802061 192.813495 
L 505.731976 195.147187 
L 506.66189 192.706032 
L 507.591805 192.932257 
L 508.521719 192.528389 
L 509.451633 192.887038 
L 510.381548 192.148387 
L 511.311462 191.828487 
L 512.241376 192.653022 
L 513.171291 189.106438 
L 514.101205 190.143963 
L 515.03112 188.936976 
L 515.961034 189.508347 
L 516.890948 189.801049 
L 517.820863 190.97118 
L 518.750777 190.927532 
L 519.680691 189.469274 
L 520.610606 192.209101 
L 521.54052 192.511938 
L 522.470435 193.610836 
L 523.400349 195.846693 
L 524.330263 194.293667 
L 525.260178 193.615869 
L 526.190092 195.010045 
L 527.120006 197.343349 
L 528.049921 195.243985 
L 528.979835 193.638163 
L 529.909749 194.070696 
L 530.839664 190.873718 
L 531.769578 191.379126 
L 532.699493 191.549452 
L 533.629407 191.351517 
L 534.559321 189.484386 
L 535.489236 190.03157 
L 536.41915 191.925617 
L 537.349064 191.586254 
L 538.278979 192.419149 
L 539.208893 193.811347 
L 540.138808 194.397732 
L 541.068722 191.467745 
L 541.998636 192.324042 
L 541.998636 192.324042 
" clip-path="url(#pcdf06d4f7c)" style="fill: none; stroke: #dd542f; stroke-width: 2; stroke-linecap: round"/>
   </g>
   <g id="patch_3">
    <path d="M 54.77 379.06 
L 54.77 10.8 
" style="fill: none; stroke: #404040; stroke-width: 2; stroke-linejoin: miter; stroke-linecap: square"/>
   </g>
   <g id="patch_4">
    <path d="M 565.2 379.06 
L 565.2 10.8 
" style="fill: none; stroke: #404040; stroke-width: 2; stroke-linejoin: miter; stroke-linecap: square"/>
   </g>
   <g id="patch_5">
    <path d="M 54.77 379.06 
L 565.2 379.06 
" style="fill: none; stroke: #404040; stroke-width: 2; stroke-linejoin: miter; stroke-linecap: square"/>
   </g>
   <g id="patch_6">
    <path d="M 54.77 10.8 
L 565.2 10.8 
" style="fill: none; stroke: #404040; stroke-width: 2; stroke-linejoin: miter; stroke-linecap: square"/>
   </g>
   <g id="legend_1">
    <g id="line2d_16">
     <path d="M 407.653125 30.989063 
L 422.653125 30.989063 
L 437.653125 30.989063 
" style="fill: none; stroke: #1c3885; stroke-width: 2; stroke-linecap: round"/>
    </g>
    <g id="text_14">
     <!-- 2025-07-12 AM -->
     <g style="fill: #262626" transform="translate(449.653125 36.239063) scale(0.15 -0.15)">
      <defs>
       <path id="SourceHanSansSC-Regular-2d" d="M 294 1568 
L 1933 1568 
L 1933 2016 
L 294 2016 
L 294 1568 
z
" transform="scale(0.015625)"/>
       <path id="SourceHanSansSC-Regular-37" d="M 1267 0 
L 1875 0 
C 1952 1837 2150 2931 3251 4339 
L 3251 4691 
L 314 4691 
L 314 4192 
L 2592 4192 
C 1670 2912 1350 1779 1267 0 
z
" transform="scale(0.015625)"/>
       <path id="SourceHanSansSC-Regular-41" d="M 26 0 
L 621 0 
L 1075 1434 
L 2790 1434 
L 3238 0 
L 3866 0 
L 2272 4691 
L 1613 4691 
L 26 0 
z
M 1222 1901 
L 1453 2624 
C 1619 3155 1773 3661 1920 4211 
L 1946 4211 
C 2099 3667 2246 3155 2419 2624 
L 2643 1901 
L 1222 1901 
z
" transform="scale(0.015625)"/>
       <path id="SourceHanSansSC-Regular-4d" d="M 646 0 
L 1178 0 
L 1178 2598 
C 1178 3002 1139 3616 1101 4032 
L 1126 4032 
L 1504 2912 
L 2394 474 
L 2790 474 
L 3674 2912 
L 4051 4032 
L 4077 4032 
C 4045 3616 4000 3002 4000 2598 
L 4000 0 
L 4550 0 
L 4550 4691 
L 3840 4691 
L 2944 2182 
C 2835 1862 2739 1530 2618 1203 
L 2592 1203 
C 2477 1530 2374 1862 2253 2182 
L 1357 4691 
L 646 4691 
L 646 0 
z
" transform="scale(0.015625)"/>
      </defs>
      <use xlink:href="#SourceHanSansSC-Regular-32"/>
      <use xlink:href="#SourceHanSansSC-Regular-30" x="55.499985"/>
      <use xlink:href="#SourceHanSansSC-Regular-32" x="110.999969"/>
      <use xlink:href="#SourceHanSansSC-Regular-35" x="166.499954"/>
      <use xlink:href="#SourceHanSansSC-Regular-2d" x="221.999939"/>
      <use xlink:href="#SourceHanSansSC-Regular-30" x="256.699936"/>
      <use xlink:href="#SourceHanSansSC-Regular-37" x="312.199921"/>
      <use xlink:href="#SourceHanSansSC-Regular-2d" x="367.699905"/>
      <use xlink:href="#SourceHanSansSC-Regular-31" x="402.399902"/>
      <use xlink:href="#SourceHanSansSC-Regular-32" x="457.899887"/>
      <use xlink:href="#SourceHanSansSC-Regular-20" x="513.399872"/>
      <use xlink:href="#SourceHanSansSC-Regular-41" x="535.799866"/>
      <use xlink:href="#SourceHanSansSC-Regular-4d" x="596.599854"/>
     </g>
    </g>
    <g id="line2d_17">
     <path d="M 407.653125 53.864063 
L 422.653125 53.864063 
L 437.653125 53.864063 
" style="fill: none; stroke: #4f8cbb; stroke-width: 2; stroke-linecap: round"/>
    </g>
    <g id="text_15">
     <!-- 2025-07-12 PM -->
     <g style="fill: #262626" transform="translate(449.653125 59.114063) scale(0.15 -0.15)">
      <defs>
       <path id="SourceHanSansSC-Regular-50" d="M 646 0 
L 1235 0 
L 1235 1869 
L 2010 1869 
C 3040 1869 3738 2323 3738 3315 
C 3738 4339 3034 4691 1984 4691 
L 646 4691 
L 646 0 
z
M 1235 2349 
L 1235 4211 
L 1907 4211 
C 2733 4211 3149 4000 3149 3315 
C 3149 2643 2758 2349 1933 2349 
L 1235 2349 
z
" transform="scale(0.015625)"/>
      </defs>
      <use xlink:href="#SourceHanSansSC-Regular-32"/>
      <use xlink:href="#SourceHanSansSC-Regular-30" x="55.499985"/>
      <use xlink:href="#SourceHanSansSC-Regular-32" x="110.999969"/>
      <use xlink:href="#SourceHanSansSC-Regular-35" x="166.499954"/>
      <use xlink:href="#SourceHanSansSC-Regular-2d" x="221.999939"/>
      <use xlink:href="#SourceHanSansSC-Regular-30" x="256.699936"/>
      <use xlink:href="#SourceHanSansSC-Regular-37" x="312.199921"/>
      <use xlink:href="#SourceHanSansSC-Regular-2d" x="367.699905"/>
      <use xlink:href="#SourceHanSansSC-Regular-31" x="402.399902"/>
      <use xlink:href="#SourceHanSansSC-Regular-32" x="457.899887"/>
      <use xlink:href="#SourceHanSansSC-Regular-20" x="513.399872"/>
      <use xlink:href="#SourceHanSansSC-Regular-50" x="535.799866"/>
      <use xlink:href="#SourceHanSansSC-Regular-4d" x="599.099854"/>
     </g>
    </g>
    <g id="line2d_18">
     <path d="M 407.653125 76.739063 
L 422.653125 76.739063 
L 437.653125 76.739063 
" style="fill: none; stroke: #f4a25c; stroke-width: 2; stroke-linecap: round"/>
    </g>
    <g id="text_16">
     <!-- 2025-11-08 -->
     <g style="fill: #262626" transform="translate(449.653125 81.989063) scale(0.15 -0.15)">
      <use xlink:href="#SourceHanSansSC-Regular-32"/>
      <use xlink:href="#SourceHanSansSC-Regular-30" x="55.499985"/>
      <use xlink:href="#SourceHanSansSC-Regular-32" x="110.999969"/>
      <use xlink:href="#SourceHanSansSC-Regular-35" x="166.499954"/>
      <use xlink:href="#SourceHanSansSC-Regular-2d" x="221.999939"/>
      <use xlink:href="#SourceHanSansSC-Regular-31" x="256.699936"/>
      <use xlink:href="#SourceHanSansSC-Regular-31" x="312.199921"/>
      <use xlink:href="#SourceHanSansSC-Regular-2d" x="367.699905"/>
      <use xlink:href="#SourceHanSansSC-Regular-30" x="402.399902"/>
      <use xlink:href="#SourceHanSansSC-Regular-38" x="457.899887"/>
     </g>
    </g>
    <g id="line2d_19">
     <path d="M 407.653125 99.614063 
L 422.653125 99.614063 
L 437.653125 99.614063 
" style="fill: none; stroke: #dd542f; stroke-width: 2; stroke-linecap: round"/>
    </g>
    <g id="text_17">
     <!-- 2026-01-28 -->
     <g style="fill: #262626" transform="translate(449.653125 104.864063) scale(0.15 -0.15)">
      <use xlink:href="#SourceHanSansSC-Regular-32"/>
      <use xlink:href="#SourceHanSansSC-Regular-30" x="55.499985"/>
      <use xlink:href="#SourceHanSansSC-Regular-32" x="110.999969"/>
      <use xlink:href="#SourceHanSansSC-Regular-36" x="166.499954"/>
      <use xlink:href="#SourceHanSansSC-Regular-2d" x="221.999939"/>
      <use xlink:href="#SourceHanSansSC-Regular-30" x="256.699936"/>
      <use xlink:href="#SourceHanSansSC-Regular-31" x="312.199921"/>
      <use xlink:href="#SourceHanSansSC-Regular-2d" x="367.699905"/>
      <use xlink:href="#SourceHanSansSC-Regular-32" x="402.399902"/>
      <use xlink:href="#SourceHanSansSC-Regular-38" x="457.899887"/>
     </g>
    </g>
   </g>
  </g>
 </g>
 <defs>
  <clipPath id="pcdf06d4f7c">
   <rect x="54.77" y="10.8" width="510.43" height="368.26"/>
  </clipPath>
 </defs>
</svg>
